<svg aria-hidden="true" style="position: absolute; width: 0; height: 0; overflow: hidden;" version="1.1" xmlns="http://www.w3.org/2000/svg" xmlns:xlink="http://www.w3.org/1999/xlink">
<defs>
<symbol id="icon-search" viewBox="0 0 26 28">
<path d="M18 13c0-3.859-3.141-7-7-7s-7 3.141-7 7 3.141 7 7 7 7-3.141 7-7zM26 26c0 1.094-0.906 2-2 2-0.531 0-1.047-0.219-1.406-0.594l-5.359-5.344c-1.828 1.266-4.016 1.937-6.234 1.937-6.078 0-11-4.922-11-11s4.922-11 11-11 11 4.922 11 11c0 2.219-0.672 4.406-1.937 6.234l5.359 5.359c0.359 0.359 0.578 0.875 0.578 1.406z"></path>
</symbol>
<symbol id="icon-shopping-cart" viewBox="0 0 26 28">
<path d="M10 24c0 1.094-0.906 2-2 2s-2-0.906-2-2 0.906-2 2-2 2 0.906 2 2zM24 24c0 1.094-0.906 2-2 2s-2-0.906-2-2 0.906-2 2-2 2 0.906 2 2zM26 7v8c0 0.5-0.391 0.938-0.891 1l-16.312 1.906c0.078 0.359 0.203 0.719 0.203 1.094 0 0.359-0.219 0.688-0.375 1h14.375c0.547 0 1 0.453 1 1s-0.453 1-1 1h-16c-0.547 0-1-0.453-1-1 0-0.484 0.703-1.656 0.953-2.141l-2.766-12.859h-3.187c-0.547 0-1-0.453-1-1s0.453-1 1-1h4c1.047 0 1.078 1.25 1.234 2h18.766c0.547 0 1 0.453 1 1z"></path>
</symbol>
</defs>
</svg>
