<svg width="36" height="37" viewBox="0 0 36 37" fill="none" xmlns="http://www.w3.org/2000/svg">
<g id="Social Icon">
<path id="Shape" d="M18 3.57637C22.8094 3.57637 23.3789 3.59746 25.2703 3.68184C27.0281 3.75918 27.9773 4.05449 28.6102 4.30059C29.4469 4.62402 30.0516 5.01777 30.6773 5.64355C31.3102 6.27637 31.6969 6.87402 32.0203 7.71074C32.2664 8.34355 32.5617 9.2998 32.6391 11.0506C32.7234 12.949 32.7445 13.5186 32.7445 18.3209C32.7445 23.1303 32.7234 23.6998 32.6391 25.5912C32.5617 27.349 32.2664 28.2982 32.0203 28.9311C31.6969 29.7678 31.3031 30.3725 30.6773 30.9982C30.0445 31.6311 29.4469 32.0178 28.6102 32.3412C27.9773 32.5873 27.0211 32.8826 25.2703 32.96C23.3719 33.0443 22.8023 33.0654 18 33.0654C13.1906 33.0654 12.6211 33.0443 10.7297 32.96C8.97188 32.8826 8.02266 32.5873 7.38984 32.3412C6.55313 32.0178 5.94844 31.624 5.32266 30.9982C4.68984 30.3654 4.30312 29.7678 3.97969 28.9311C3.73359 28.2982 3.43828 27.342 3.36094 25.5912C3.27656 23.6928 3.25547 23.1232 3.25547 18.3209C3.25547 13.5115 3.27656 12.942 3.36094 11.0506C3.43828 9.29277 3.73359 8.34355 3.97969 7.71074C4.30312 6.87402 4.69688 6.26934 5.32266 5.64355C5.95547 5.01074 6.55313 4.62402 7.38984 4.30059C8.02266 4.05449 8.97891 3.75918 10.7297 3.68184C12.6211 3.59746 13.1906 3.57637 18 3.57637ZM18 0.334961C13.1133 0.334961 12.5016 0.356055 10.582 0.44043C8.66953 0.524805 7.35469 0.83418 6.21563 1.27715C5.02734 1.74121 4.02188 2.35293 3.02344 3.3584C2.01797 4.35684 1.40625 5.3623 0.942188 6.54355C0.499219 7.68965 0.189844 8.99746 0.105469 10.91C0.0210938 12.8365 0 13.4482 0 18.335C0 23.2217 0.0210938 23.8334 0.105469 25.7529C0.189844 27.6654 0.499219 28.9803 0.942188 30.1193C1.40625 31.3076 2.01797 32.3131 3.02344 33.3115C4.02188 34.31 5.02734 34.9287 6.20859 35.3857C7.35469 35.8287 8.6625 36.1381 10.575 36.2225C12.4945 36.3068 13.1062 36.3279 17.993 36.3279C22.8797 36.3279 23.4914 36.3068 25.4109 36.2225C27.3234 36.1381 28.6383 35.8287 29.7773 35.3857C30.9586 34.9287 31.9641 34.31 32.9625 33.3115C33.9609 32.3131 34.5797 31.3076 35.0367 30.1264C35.4797 28.9803 35.7891 27.6725 35.8734 25.76C35.9578 23.8404 35.9789 23.2287 35.9789 18.342C35.9789 13.4553 35.9578 12.8436 35.8734 10.924C35.7891 9.01152 35.4797 7.69668 35.0367 6.55762C34.5938 5.3623 33.982 4.35684 32.9766 3.3584C31.9781 2.35996 30.9727 1.74121 29.7914 1.28418C28.6453 0.841211 27.3375 0.531836 25.425 0.447461C23.4984 0.356055 22.8867 0.334961 18 0.334961Z" fill="#FEFEFD"/>
<path id="Shape_2" d="M18 9.08887C12.8953 9.08887 8.75391 13.2303 8.75391 18.335C8.75391 23.4396 12.8953 27.5811 18 27.5811C23.1047 27.5811 27.2461 23.4396 27.2461 18.335C27.2461 13.2303 23.1047 9.08887 18 9.08887ZM18 24.3326C14.6883 24.3326 12.0023 21.6467 12.0023 18.335C12.0023 15.0232 14.6883 12.3373 18 12.3373C21.3117 12.3373 23.9977 15.0232 23.9977 18.335C23.9977 21.6467 21.3117 24.3326 18 24.3326Z" fill="#FEFEFD"/>
<path id="Shape_3" d="M29.7703 8.72317C29.7703 9.91849 28.8 10.8818 27.6117 10.8818C26.4164 10.8818 25.4531 9.91145 25.4531 8.72317C25.4531 7.52786 26.4234 6.56458 27.6117 6.56458C28.8 6.56458 29.7703 7.53489 29.7703 8.72317Z" fill="#FEFEFD"/>
</g>
</svg>
